<svg width="36" height="34" viewBox="0 0 36 34" fill="none" xmlns="http://www.w3.org/2000/svg">
<mask id="path-1-inside-1_19_1427" fill="white">
<path d="M5.40327 17.7628C5.01275 17.3722 5.01275 16.7391 5.40327 16.3486L6.37148 15.3804C8.71462 13.0372 12.5136 13.0372 14.8568 15.3804L15.825 16.3486C16.2155 16.7391 16.2155 17.3722 15.825 17.7628L14.8568 18.731C12.5136 21.0741 8.71462 21.0741 6.37148 18.731L5.40327 17.7628Z"/>
</mask>
<path d="M5.40327 17.7628C5.01275 17.3722 5.01275 16.7391 5.40327 16.3486L6.37148 15.3804C8.71462 13.0372 12.5136 13.0372 14.8568 15.3804L15.825 16.3486C16.2155 16.7391 16.2155 17.3722 15.825 17.7628L14.8568 18.731C12.5136 21.0741 8.71462 21.0741 6.37148 18.731L5.40327 17.7628Z" stroke="#3A3845" stroke-width="4" mask="url(#path-1-inside-1_19_1427)"/>
<mask id="path-2-inside-2_19_1427" fill="white">
<path d="M19.328 17.7628C18.9375 17.3722 18.9375 16.7391 19.328 16.3486L20.2962 15.3804C22.6394 13.0372 26.4384 13.0372 28.7815 15.3804L29.7497 16.3486C30.1402 16.7391 30.1402 17.3722 29.7497 17.7628L28.7815 18.731C26.4384 21.0741 22.6394 21.0741 20.2962 18.731L19.328 17.7628Z"/>
</mask>
<path d="M19.328 17.7628C18.9375 17.3722 18.9375 16.7391 19.328 16.3486L20.2962 15.3804C22.6394 13.0372 26.4384 13.0372 28.7815 15.3804L29.7497 16.3486C30.1402 16.7391 30.1402 17.3722 29.7497 17.7628L28.7815 18.731C26.4384 21.0741 22.6394 21.0741 20.2962 18.731L19.328 17.7628Z" stroke="#3A3845" stroke-width="4" mask="url(#path-2-inside-2_19_1427)"/>
<mask id="path-3-inside-3_19_1427" fill="white">
<path d="M16.8691 4.8824C17.2597 4.49188 17.8928 4.49188 18.2833 4.8824L19.2515 5.8506C21.5947 8.19375 21.5947 11.9927 19.2515 14.3359L18.2833 15.3041C17.8928 15.6946 17.2597 15.6946 16.8691 15.3041L15.9009 14.3359C13.5578 11.9927 13.5578 8.19375 15.9009 5.8506L16.8691 4.8824Z"/>
</mask>
<path d="M16.8691 4.8824C17.2597 4.49188 17.8928 4.49188 18.2833 4.8824L19.2515 5.8506C21.5947 8.19375 21.5947 11.9927 19.2515 14.3359L18.2833 15.3041C17.8928 15.6946 17.2597 15.6946 16.8691 15.3041L15.9009 14.3359C13.5578 11.9927 13.5578 8.19375 15.9009 5.8506L16.8691 4.8824Z" stroke="#3A3845" stroke-width="4" mask="url(#path-3-inside-3_19_1427)"/>
<mask id="path-4-inside-4_19_1427" fill="white">
<path d="M16.7778 18.1153C17.1683 17.7248 17.8015 17.7248 18.192 18.1153L19.1602 19.0835C21.5034 21.4267 21.5034 25.2257 19.1602 27.5688L18.192 28.537C17.8015 28.9275 17.1683 28.9275 16.7778 28.537L15.8096 27.5688C13.4665 25.2257 13.4665 21.4267 15.8096 19.0835L16.7778 18.1153Z"/>
</mask>
<path d="M16.7778 18.1153C17.1683 17.7248 17.8015 17.7248 18.192 18.1153L19.1602 19.0835C21.5034 21.4267 21.5034 25.2257 19.1602 27.5688L18.192 28.537C17.8015 28.9275 17.1683 28.9275 16.7778 28.537L15.8096 27.5688C13.4665 25.2257 13.4665 21.4267 15.8096 19.0835L16.7778 18.1153Z" stroke="#3A3845" stroke-width="4" mask="url(#path-4-inside-4_19_1427)"/>
<path d="M20.799 1.45557C21.7418 1.37728 22.5235 1.39236 23.2374 1.646C23.6766 1.80207 24.019 2.1629 24.4855 2.8042C24.8951 3.36737 25.4557 4.24831 26.2706 4.82275C27.1633 5.45191 28.365 5.8787 29.215 6.23975C30.194 6.65562 30.7378 6.99037 30.965 7.36963C31.278 7.89244 31.4402 8.55018 31.59 9.42334C31.7311 10.2466 31.8638 11.2886 32.171 12.3032C32.4474 13.2159 33.0335 14.1773 33.4259 14.9175C33.8647 15.7451 34.1328 16.4029 34.1329 16.9995C34.1329 17.562 33.8919 18.07 33.465 18.7437C33.0803 19.3505 32.4615 20.1929 32.171 21.1519C31.8527 22.203 31.7959 23.4068 31.6935 24.3022C31.5814 25.2821 31.4147 26.0081 31.0157 26.5542C30.6201 27.0958 29.9769 27.4793 29.0812 27.8901C28.2656 28.2641 27.1485 28.6913 26.2706 29.3101C25.4687 29.8754 24.9105 30.7065 24.5001 31.2417C24.0414 31.84 23.6958 32.1911 23.2374 32.354C22.5235 32.6076 21.7418 32.6227 20.799 32.5444C19.9242 32.4718 18.7732 32.2964 17.6915 32.2964C16.6097 32.2964 15.458 32.4718 14.5831 32.5444C13.6405 32.6227 12.8594 32.6076 12.1456 32.354C11.4965 32.1234 10.9685 31.7124 10.3868 31.1597C9.84685 30.6465 9.16699 29.9059 8.40442 29.3296C7.65957 28.7667 6.73334 28.2998 6.04993 27.9019C5.30662 27.4691 4.74125 27.066 4.36731 26.5542C3.9384 25.967 3.70233 25.193 3.50989 24.2212C3.33283 23.3271 3.1798 22.1484 2.87805 21.1519C2.60409 20.2473 2.10777 19.4284 1.79602 18.8218C1.45971 18.1673 1.25012 17.6242 1.25012 16.9995C1.25026 16.4028 1.51834 15.7452 1.95715 14.9175C2.34958 14.1773 2.93564 13.216 3.21204 12.3032C3.52691 11.2634 3.58699 10.2041 3.68762 9.44385C3.79459 8.63591 3.95131 8.01528 4.36731 7.4458C4.73009 6.9492 5.27754 6.58063 6.02063 6.18018C6.70264 5.81265 7.64177 5.37952 8.40442 4.80322C9.18262 4.21515 9.86295 3.43294 10.4064 2.88721C10.9944 2.29671 11.5152 1.86996 12.1456 1.646C12.8595 1.3924 13.6404 1.37732 14.5831 1.45557C15.458 1.5282 16.6097 1.70361 17.6915 1.70361C18.7732 1.70361 19.9242 1.52822 20.799 1.45557Z" stroke="#3A3845" stroke-width="2"/>
</svg>
