<svg width="86" height="82" viewBox="0 0 86 82" fill="none" xmlns="http://www.w3.org/2000/svg">
<mask id="path-1-inside-1_1_603" fill="white">
<path d="M12.5868 42.5507C11.8057 41.7696 11.8057 40.5033 12.5868 39.7223L17.181 35.128C21.8673 30.4417 29.4653 30.4417 34.1516 35.128L38.7458 39.7223C39.5268 40.5033 39.5268 41.7696 38.7458 42.5507L34.1515 47.1449C29.4653 51.8312 21.8673 51.8312 17.181 47.1449L12.5868 42.5507Z"/>
</mask>
<path d="M12.5868 42.5507C11.8057 41.7696 11.8057 40.5033 12.5868 39.7223L17.181 35.128C21.8673 30.4417 29.4653 30.4417 34.1516 35.128L38.7458 39.7223C39.5268 40.5033 39.5268 41.7696 38.7458 42.5507L34.1515 47.1449C29.4653 51.8312 21.8673 51.8312 17.181 47.1449L12.5868 42.5507Z" stroke="white" stroke-width="8" mask="url(#path-1-inside-1_1_603)"/>
<mask id="path-2-inside-2_1_603" fill="white">
<path d="M46.6897 42.5507C45.9086 41.7696 45.9086 40.5033 46.6897 39.7223L51.2839 35.128C55.9702 30.4417 63.5682 30.4417 68.2545 35.128L72.8487 39.7223C73.6297 40.5033 73.6297 41.7696 72.8487 42.5507L68.2545 47.1449C63.5682 51.8312 55.9702 51.8312 51.2839 47.1449L46.6897 42.5507Z"/>
</mask>
<path d="M46.6897 42.5507C45.9086 41.7696 45.9086 40.5033 46.6897 39.7223L51.2839 35.128C55.9702 30.4417 63.5682 30.4417 68.2545 35.128L72.8487 39.7223C73.6297 40.5033 73.6297 41.7696 72.8487 42.5507L68.2545 47.1449C63.5682 51.8312 55.9702 51.8312 51.2839 47.1449L46.6897 42.5507Z" stroke="white" stroke-width="8" mask="url(#path-2-inside-2_1_603)"/>
<mask id="path-3-inside-3_1_603" fill="white">
<path d="M41.3035 11.0055C42.0845 10.2245 43.3509 10.2245 44.1319 11.0055L48.7262 15.5998C53.4125 20.286 53.4124 27.884 48.7262 32.5703L44.1319 37.1645C43.3509 37.9456 42.0845 37.9456 41.3035 37.1645L36.7093 32.5703C32.023 27.884 32.023 20.286 36.7093 15.5998L41.3035 11.0055Z"/>
</mask>
<path d="M41.3035 11.0055C42.0845 10.2245 43.3509 10.2245 44.1319 11.0055L48.7262 15.5998C53.4125 20.286 53.4124 27.884 48.7262 32.5703L44.1319 37.1645C43.3509 37.9456 42.0845 37.9456 41.3035 37.1645L36.7093 32.5703C32.023 27.884 32.023 20.286 36.7093 15.5998L41.3035 11.0055Z" stroke="white" stroke-width="8" mask="url(#path-3-inside-3_1_603)"/>
<mask id="path-4-inside-4_1_603" fill="white">
<path d="M41.0796 43.4142C41.8606 42.6332 43.1269 42.6332 43.908 43.4142L48.5022 48.0084C53.1885 52.6947 53.1885 60.2927 48.5022 64.979L43.908 69.5732C43.1269 70.3543 41.8606 70.3543 41.0796 69.5732L36.4853 64.979C31.799 60.2927 31.799 52.6947 36.4853 48.0084L41.0796 43.4142Z"/>
</mask>
<path d="M41.0796 43.4142C41.8606 42.6332 43.1269 42.6332 43.908 43.4142L48.5022 48.0084C53.1885 52.6947 53.1885 60.2927 48.5022 64.979L43.908 69.5732C43.1269 70.3543 41.8606 70.3543 41.0796 69.5732L36.4853 64.979C31.799 60.2927 31.799 52.6947 36.4853 48.0084L41.0796 43.4142Z" stroke="white" stroke-width="8" mask="url(#path-4-inside-4_1_603)"/>
<path d="M50.5742 2.48267C52.9011 2.28946 54.8921 2.31921 56.7324 2.9729C57.9502 3.40551 58.8583 4.39663 60.002 5.96899C61.0318 7.38497 62.3511 9.45648 64.2695 10.8088C66.4043 12.3136 69.2726 13.3321 71.3975 14.2346C73.7806 15.2469 75.2531 16.1125 75.8945 17.1838C76.7078 18.5421 77.1151 20.2263 77.4824 22.3684C77.8326 24.4105 78.1499 26.9169 78.8916 29.3665C79.5517 31.5465 80.9495 33.8344 81.9326 35.6887C83.0088 37.7185 83.7158 39.4173 83.7158 41.0002C83.7158 42.5145 83.0628 43.851 82.0107 45.511C81.0431 47.0377 79.5798 49.0272 78.8916 51.3C78.1278 53.8227 77.9933 56.6948 77.7373 58.9338C77.4619 61.3423 77.0467 63.2247 75.9951 64.6643C74.9525 66.0915 73.283 67.0714 71.083 68.0803C69.0432 69.0158 66.3747 70.032 64.2695 71.5159C62.377 72.85 61.0636 74.8084 60.0322 76.1536C58.904 77.6251 57.9884 78.5804 56.7324 79.0266C54.892 79.6804 52.9012 79.711 50.5742 79.5178C48.3833 79.3359 45.627 78.9114 43 78.9114C40.373 78.9114 37.6167 79.3359 35.4258 79.5178C33.0988 79.711 31.108 79.6804 29.2676 79.0266C27.5883 78.4301 26.2392 77.3721 24.7998 76.0042C23.4439 74.7156 21.8244 72.9461 19.9834 71.5549C18.1879 70.1982 15.9727 69.0837 14.2627 68.0881C12.4327 67.0226 10.9786 65.9972 10.0049 64.6643C8.89342 63.1428 8.30177 61.1645 7.82812 58.7727C7.38525 56.5363 7.0208 53.7135 6.29004 51.3C5.63478 49.1361 4.45423 47.1935 3.66992 45.6672C2.83665 44.0456 2.28421 42.6388 2.28418 41.0002C2.28418 39.4173 2.99122 37.7185 4.06738 35.6887C5.05051 33.8344 6.44826 31.5465 7.1084 29.3665C7.86541 26.8662 8.00527 24.3424 8.25781 22.4348C8.52301 20.4318 8.91926 18.8224 10.0049 17.3362C10.9564 16.0336 12.3753 15.0927 14.2051 14.1067C15.9123 13.1867 18.1523 12.1535 19.9834 10.7698C21.8557 9.35488 23.477 7.48801 24.8398 6.11938C26.2918 4.66131 27.6259 3.55611 29.2676 2.9729C31.1079 2.3192 33.0989 2.28946 35.4258 2.48267C37.6167 2.66459 40.373 3.08813 43 3.08813C45.627 3.08813 48.3833 2.66459 50.5742 2.48267Z" stroke="white" stroke-width="4"/>
</svg>
